<svg width="135.601" height="69.6" viewBox="0 0 135.601 69.6" xmlns="http://www.w3.org/2000/svg"><g id="svgGroup" stroke-linecap="round" fill-rule="nonzero" font-size="9pt" stroke="#ffffff" stroke-width=".4mm" fill="#000000" style="stroke:#ffffff;stroke-width:.4mm;fill:#000000"><path d="M 7.4 12.4 L 7.3 11.9 Q 7.3 10.702 8.577 9.758 A 6.44 6.44 0 0 1 9.3 9.3 L 21 4.7 Q 21.383 4.509 22.085 4.5 A 5.451 5.451 0 0 1 22.15 4.5 A 1.577 1.577 0 0 1 23.111 4.831 A 2.418 2.418 0 0 1 23.5 5.2 Q 23.939 5.712 24.431 5.85 A 1.365 1.365 0 0 0 24.8 5.9 Q 25.5 5.9 27.75 5.35 Q 30 4.8 33.8 3.95 Q 37.6 3.1 42.3 2.3 A 133.135 133.135 0 0 1 62.977 0.417 A 147.498 147.498 0 0 1 65.2 0.4 Q 79.3 0.4 85.4 2.5 Q 87.8 3.4 89.45 4.95 A 5.236 5.236 0 0 1 90.7 6.692 A 5.01 5.01 0 0 1 91.1 8.7 A 1.312 1.312 0 0 1 90.966 9.314 Q 90.681 9.861 89.792 9.972 A 3.978 3.978 0 0 1 89.3 10 A 502.029 502.029 0 0 0 73.188 10.694 Q 58.835 11.559 48.4 13.2 Q 47.33 13.334 46.975 13.781 A 0.811 0.811 0 0 0 46.8 14.3 A 3.135 3.135 0 0 0 46.816 14.617 A 2.454 2.454 0 0 0 46.85 14.85 A 0.161 0.161 0 0 1 46.853 14.882 Q 46.853 15.153 46.1 16 L 34.8 28.1 Q 34.167 28.733 34.107 29.08 A 0.408 0.408 0 0 0 34.1 29.15 A 0.726 0.726 0 0 0 34.11 29.273 Q 34.148 29.494 34.34 29.5 A 0.346 0.346 0 0 0 34.35 29.5 Q 34.584 29.5 35.475 29.325 A 39.41 39.41 0 0 0 35.6 29.3 Q 42.1 28.9 47.6 28.9 Q 52.849 28.9 53.817 29.447 A 0.764 0.764 0 0 1 53.9 29.5 A 137.363 137.363 0 0 1 55.422 30.657 Q 58.391 32.949 59.029 33.773 A 2.165 2.165 0 0 1 59.05 33.8 Q 59.637 34.583 59.765 35.12 A 1.215 1.215 0 0 1 59.8 35.4 Q 59.8 36.7 57.6 37 A 4620.639 4620.639 0 0 1 51.49 37.598 Q 30.943 39.594 29.1 39.55 Q 27 39.5 26.4 39.5 A 2.586 2.586 0 0 0 25.253 39.795 Q 24.113 40.359 22.8 42 L 10.6 58.2 A 7.59 7.59 0 0 0 10.405 58.528 Q 10.135 59.014 10.104 59.284 A 0.582 0.582 0 0 0 10.1 59.35 A 0.436 0.436 0 0 0 10.123 59.497 Q 10.192 59.689 10.469 59.699 A 0.861 0.861 0 0 0 10.5 59.7 Q 10.9 59.7 11.7 59.3 A 123.784 123.784 0 0 1 21.88 58.087 A 98.009 98.009 0 0 1 29.25 57.8 A 217.893 217.893 0 0 1 33.066 57.831 Q 37.041 57.901 39.721 58.127 A 42.291 42.291 0 0 1 41.4 58.3 A 9.078 9.078 0 0 1 45.592 59.415 Q 48.593 60.971 51.807 64.697 A 43.305 43.305 0 0 1 53.2 66.4 Q 53.7 67.1 53.7 67.7 A 0.433 0.433 0 0 1 53.462 68.083 Q 53.136 68.279 52.366 68.298 A 6.878 6.878 0 0 1 52.2 68.3 Q 33.136 68.3 21.048 68.886 A 240.375 240.375 0 0 0 14.3 69.3 A 4.332 4.332 0 0 1 13.921 69.357 Q 13.525 69.4 13 69.4 Q 9.106 69.4 7.426 67.76 A 3.961 3.961 0 0 1 7.1 67.4 A 1.119 1.119 0 0 0 6.819 67.034 Q 6.599 66.851 6.284 66.811 A 1.458 1.458 0 0 0 6.1 66.8 Q 5.4 66.8 4.85 67.5 Q 4.382 68.095 4.095 68.184 A 0.322 0.322 0 0 1 4 68.2 A 0.579 0.579 0 0 1 3.833 68.169 Q 3.572 68.088 3.096 67.791 A 11.404 11.404 0 0 1 2.8 67.6 Q 1.909 67.006 0.97 65.58 A 14.097 14.097 0 0 1 0.95 65.55 Q 0 64.1 0 62.45 Q 0 60.8 0.65 59.4 Q 1.232 58.148 2.133 56.255 A 682.985 682.985 0 0 1 2.35 55.8 Q 3.323 53.761 6.529 49.017 A 210.004 210.004 0 0 1 7.05 48.25 A 62.781 62.781 0 0 1 11.237 42.757 A 49.33 49.33 0 0 1 14.7 39.1 A 2.485 2.485 0 0 0 14.942 38.823 Q 15.2 38.473 15.2 38.15 Q 15.2 37.7 14.15 37.7 A 3.184 3.184 0 0 1 12.87 37.421 A 4.52 4.52 0 0 1 12.05 36.95 A 2.385 2.385 0 0 1 11.021 35.218 A 3.173 3.173 0 0 1 11 34.85 A 1.21 1.21 0 0 1 11.391 33.998 Q 12.095 33.276 14.069 32.716 A 18.298 18.298 0 0 1 14.5 32.6 L 19.9 31.2 L 20 31.2 A 2.778 2.778 0 0 0 21.375 30.812 Q 22.245 30.322 23.115 29.211 A 10.678 10.678 0 0 0 23.2 29.1 A 465.17 465.17 0 0 1 27.234 25.214 Q 34.841 17.981 37.147 16.638 A 4.537 4.537 0 0 1 37.4 16.5 Q 38.146 16.003 38.274 15.678 A 0.349 0.349 0 0 0 38.3 15.55 A 0.289 0.289 0 0 0 38.123 15.273 Q 37.974 15.2 37.7 15.2 A 5.962 5.962 0 0 0 37.286 15.213 Q 36.953 15.237 36.7 15.3 A 164.885 164.885 0 0 1 31.259 16.091 Q 26.27 16.725 22.718 16.792 A 43.442 43.442 0 0 1 21.9 16.8 Q 17.754 16.8 15.312 16.516 A 17.723 17.723 0 0 1 13.9 16.3 A 23.32 23.32 0 0 1 12.597 16.003 Q 11.063 15.603 10.2 15.1 A 20.564 20.564 0 0 1 9.21 14.414 Q 7.83 13.391 7.493 12.672 A 1.195 1.195 0 0 1 7.4 12.4 Z" id="0"/><path d="M 96.3 38.6 L 86.1 39 A 213.675 213.675 0 0 1 82.032 38.964 Q 77.01 38.868 74.436 38.513 A 16.719 16.719 0 0 1 73.45 38.35 Q 70.2 37.7 67.65 36.8 A 19.159 19.159 0 0 1 65.885 36.083 Q 65.043 35.687 64.361 35.246 A 9.328 9.328 0 0 1 63.6 34.7 A 9.236 9.236 0 0 1 60.854 31.483 Q 59.96 29.705 59.904 27.496 A 11.715 11.715 0 0 1 59.9 27.2 A 3.493 3.493 0 0 1 60.027 26.33 Q 60.365 25.034 61.6 23 Q 63.136 20.471 66.671 17.085 A 66.989 66.989 0 0 1 67.45 16.35 Q 71.6 12.5 77.35 9.05 Q 81.64 6.476 87.962 4.375 A 93.131 93.131 0 0 1 92.5 3 Q 101.9 0.4 112.9 0 A 35.93 35.93 0 0 1 117.951 0.371 A 43.979 43.979 0 0 1 121.15 0.95 A 50.007 50.007 0 0 1 124.202 1.712 Q 126.569 2.387 128.35 3.2 A 13.807 13.807 0 0 1 132.552 6.204 A 16.582 16.582 0 0 1 133.4 7.15 Q 135.6 9.8 135.6 13.3 A 3.65 3.65 0 0 1 134.998 15.215 Q 134.181 16.543 132.258 17.953 A 25.315 25.315 0 0 1 130.2 19.3 A 23.007 23.007 0 0 1 124.093 21.792 Q 119.814 22.9 114.35 22.9 A 108.424 108.424 0 0 1 111.513 22.866 Q 105.996 22.721 104.819 21.959 A 0.57 0.57 0 0 1 104.5 21.5 A 0.752 0.752 0 0 1 104.806 20.972 Q 105.825 20.054 110.25 18.9 Q 116 17.4 121.8 15.4 A 24.72 24.72 0 0 0 123.771 14.632 Q 127.6 12.931 127.6 10.9 A 0.817 0.817 0 0 0 127.154 10.204 Q 126.419 9.739 124.473 9.632 A 23.294 23.294 0 0 0 123.2 9.6 A 93.74 93.74 0 0 0 97.422 13.007 A 76.628 76.628 0 0 0 73.4 24.6 A 21.771 21.771 0 0 0 71.881 25.83 Q 70.434 27.124 69.866 28.238 A 3.008 3.008 0 0 0 69.5 29.6 A 1.656 1.656 0 0 0 70.605 30.946 Q 74.294 32.9 90.3 32.9 A 53.452 53.452 0 0 1 96.626 33.309 Q 103.102 34.156 106.189 36.744 A 7.649 7.649 0 0 1 109 42.9 A 11.32 11.32 0 0 1 107.05 49.1 Q 104.767 52.644 99.812 55.991 A 43.817 43.817 0 0 1 99.5 56.2 A 69.986 69.986 0 0 1 86.498 62.91 A 89.176 89.176 0 0 1 77.15 66 A 107.276 107.276 0 0 1 63.934 68.759 A 83.725 83.725 0 0 1 53 69.6 A 22.798 22.798 0 0 1 46.892 68.726 A 31.637 31.637 0 0 1 41.8 66.8 A 18.126 18.126 0 0 1 39.359 65.422 Q 35.9 63.062 35.9 60 A 1.142 1.142 0 0 1 36.577 58.927 Q 37.066 58.673 37.909 58.611 A 6.997 6.997 0 0 1 38.1 58.6 A 195.496 195.496 0 0 0 42.856 58.022 Q 49.314 57.149 52.184 56.191 A 10.517 10.517 0 0 0 53.2 55.8 Q 54 55.6 54.5 55.6 Q 54.894 55.6 54.977 55.724 A 0.133 0.133 0 0 1 55 55.8 A 0.467 0.467 0 0 1 54.932 56.019 Q 54.765 56.322 54.188 56.797 A 11.14 11.14 0 0 1 53.8 57.1 A 19.039 19.039 0 0 1 52.193 57.878 A 22.337 22.337 0 0 1 51.4 58.2 A 51.866 51.866 0 0 0 50.744 58.439 Q 48.623 59.229 48.6 59.494 A 0.067 0.067 0 0 0 48.6 59.5 A 0.15 0.15 0 0 0 48.703 59.621 Q 49.053 59.8 50.6 59.8 A 10.557 10.557 0 0 0 51.565 59.744 Q 53.917 59.519 59.684 58.399 A 326.464 326.464 0 0 0 60.7 58.2 Q 68.8 56.6 78.05 54.1 Q 87.3 51.6 94.4 47.9 Q 101.183 44.365 101.486 41.105 A 3.288 3.288 0 0 0 101.5 40.8 Q 101.5 38.654 96.551 38.601 A 23.69 23.69 0 0 0 96.3 38.6 Z" id="1"/></g></svg>